# xmcd
# 
# Track frame offsets:
#   150
#   16360
#   29320
#   44037
#   59570
#   73260
#   85927
#   99332
#   111615
#   129457
#   143292
#   162497
#   180522
#   193100
#   211640
#   224505
# 
# Disc length: 3228 seconds
# 
# Revision: 0
# Processed by: cddbd v1.5.1PL0 Copyright (c) Steve Scherf et al.
# Submitted via: VOLTOCDX V1.0.23 
# 
DISCID=ed0c9a10
DTITLE=Drew's Famous - Rockin' Country
DYEAR=1900
DGENRE=country
TTITLE0=Sin Wagon
TTITLE1=She Dont Know She's Beautiful
TTITLE2=Im Gonna Miss Her
TTITLE3=Courtesy Of The Red, White, and Blue (The Angry American)
TTITLE4=Ten Rounds with Jose Cuervo
TTITLE5=Where The Blacktop Ends
TTITLE6=I Wanna Talk About Me
TTITLE7=Be My Baby Tonight
TTITLE8=Drive (For Daddy Gene)
TTITLE9=I Should Be Sleeping
TTITLE10=Burn
TTITLE11=Young
TTITLE12=Pour Me
TTITLE13=Run
TTITLE14=Kiss This
TTITLE15=Only In America
EXTD=
EXTT0=
EXTT1=
EXTT2=
EXTT3=
EXTT4=
EXTT5=
EXTT6=
EXTT7=
EXTT8=
EXTT9=
EXTT10=
EXTT11=
EXTT12=
EXTT13=
EXTT14=
EXTT15=
PLAYORDER=
